<svg width="22" height="22" viewBox="0 0 248 248" fill="none" xmlns="http://www.w3.org/2000/svg">
    <path d="M179.558 0H68.4372C30.7009 0 0 30.7024 0 68.4386V179.56C0 217.298 30.7009 247.999 68.4372 247.999H179.558C217.298 247.999 247.999 217.296 247.999 179.56V68.4386C248 30.7024 217.298 0 179.558 0ZM225.996 179.56C225.996 205.165 205.165 225.995 179.56 225.995H68.4372C42.8337 225.996 22.0036 205.165 22.0036 179.56V68.4386C22.0036 42.8352 42.8337 22.0036 68.4372 22.0036H179.558C205.163 22.0036 225.995 42.8352 225.995 68.4386V179.56H225.996Z" fill="white"/>
    <path d="M123.999 60.0991C88.7628 60.0991 60.0964 88.7654 60.0964 124.002C60.0964 159.237 88.7628 187.902 123.999 187.902C159.236 187.902 187.902 159.237 187.902 124.002C187.902 88.7654 159.236 60.0991 123.999 60.0991ZM123.999 165.897C100.897 165.897 82.1001 147.103 82.1001 124.001C82.1001 100.897 100.896 82.1013 123.999 82.1013C147.103 82.1013 165.899 100.897 165.899 124.001C165.899 147.103 147.102 165.897 123.999 165.897Z" fill="white"/>
    <path d="M190.582 41.4414C186.343 41.4414 182.178 43.1577 179.184 46.1649C176.176 49.1573 174.446 53.3234 174.446 57.5774C174.446 61.8182 176.177 65.9828 179.184 68.9899C182.177 71.9824 186.343 73.7134 190.582 73.7134C194.836 73.7134 198.988 71.9824 201.995 68.9899C205.002 65.9828 206.718 61.8168 206.718 57.5774C206.718 53.3234 205.002 49.1573 201.995 46.1649C199.002 43.1577 194.836 41.4414 190.582 41.4414Z" fill="white"/>
</svg>
