<svg width="454" height="262" viewBox="0 0 454 262" fill="none" xmlns="http://www.w3.org/2000/svg">
    <g clip-path="url(#clip0_680_572)">
        <path d="M112.277 259.556C110.025 250.163 108.828 240.335 108.828 230.223C108.828 162.892 161.797 108.306 227.137 108.306C292.477 108.306 345.445 162.892 345.445 230.223C345.445 240.335 344.249 250.158 341.997 259.556" stroke="url(#paint0_linear_680_572)" stroke-width="5" stroke-miterlimit="10" stroke-linecap="round"/>
        <path d="M86.3466 259.557C84.4956 250.075 83.5285 240.267 83.5285 230.223C83.5285 148.489 147.823 82.2329 227.137 82.2329C306.45 82.2329 370.745 148.489 370.745 230.223C370.745 240.267 369.773 250.075 367.927 259.557" stroke="url(#paint1_linear_680_572)" stroke-width="10" stroke-miterlimit="10" stroke-linecap="round"/>
        <path d="M284.53 224.368H210.848C210.848 224.368 210.834 224.358 210.834 224.349L214.716 161.42C214.716 161.42 214.716 161.416 214.716 161.411L245.809 118.208C246.195 117.675 246.165 116.903 245.667 116.473C245.105 115.989 244.265 116.096 243.841 116.683L215.039 156.704C215.039 156.704 215.009 156.709 215.009 156.695L216.25 136.588C216.309 135.626 215.517 134.77 214.56 134.873C213.725 134.966 213.051 135.65 212.997 136.515L206.457 239.098C206.399 240.071 207.136 240.907 208.108 240.965C209.08 241.024 209.632 240.52 209.691 239.548L210.628 227.76C210.628 227.76 210.638 227.745 210.643 227.745H284.647C285.605 227.745 286.376 226.949 286.337 225.976C286.298 225.003 285.463 224.363 284.54 224.363L284.53 224.368Z" fill="#665657"/>
        <path d="M211.82 154.989C208.103 159.079 154.397 218.234 149.694 226.342C149.689 226.357 149.694 226.372 149.709 226.367C150.847 226.098 180.713 219.119 190.042 222.164C190.052 222.164 190.061 222.164 190.061 222.149C190.012 221.152 188.518 186.619 211.84 155.013C211.854 154.998 211.83 154.974 211.82 154.994V154.989Z" fill="url(#paint2_linear_680_572)"/>
        <path d="M214.716 161.411L246.405 117.426C246.405 117.426 246.429 117.416 246.434 117.426L285.522 224.598C285.522 224.598 285.522 224.622 285.507 224.622L210.858 224.368C210.858 224.368 210.834 224.359 210.843 224.344C211.376 223.567 225.081 203.079 214.712 161.426C214.712 161.426 214.712 161.416 214.712 161.411H214.716Z" fill="url(#paint3_linear_680_572)"/>
        <path d="M211.014 163.18C210.428 164.817 202.179 188.96 206.804 233.512C206.804 233.522 206.794 233.537 206.785 233.532C206.267 233.326 196.943 229.783 176.444 231.626C176.435 231.626 176.42 231.616 176.425 231.606C176.869 230.433 195.048 182.714 210.985 163.165C210.995 163.151 211.019 163.165 211.014 163.18Z" fill="url(#paint4_linear_680_572)"/>
        <path d="M139.159 232.97C138.138 232.633 138.529 231.108 139.584 231.308C158.72 234.939 194.657 239.137 209.681 239.558C230.951 240.154 247.831 242.138 273.219 238.615C280.276 237.637 286.225 236.777 291.104 236.054C292.936 235.78 293.161 237.139 291.466 237.881C282.137 241.967 271.67 249.547 265.668 258.652C264.92 259.786 263.646 260.465 262.288 260.46L186.804 260.719C185.309 260.719 183.839 260.324 182.549 259.561C180.083 258.105 176.249 254.821 172.141 252.079C164.39 246.908 160.752 243.961 153.206 240.042C148.932 237.823 144.356 234.68 139.154 232.97H139.159Z" fill="url(#paint5_linear_680_572)"/>
        <path d="M238.702 63.7834C238.702 62.1901 237.413 60.8999 235.821 60.8999H234.473C234.707 59.5461 235.147 58.2266 235.772 56.9803C236.329 55.8709 236.773 54.307 236.773 52.1615C236.773 48.7795 234.688 45.466 232.089 43.4329C231.322 42.8318 230.394 42.172 230.394 41.0821V35.0024H232.177C233.545 35.0024 234.653 33.893 234.653 32.5246C234.653 31.1562 233.545 30.0467 232.177 30.0467H230.448C230.976 29.2306 235.152 22.4471 235.152 11.9298C235.152 11.9298 235.22 0.42519 226.609 0C217.999 0.42519 218.174 11.9298 218.174 11.9298C218.174 22.4471 222.355 29.2306 222.878 30.0467H221.149C219.781 30.0467 218.673 31.1562 218.673 32.5246C218.673 33.893 219.781 35.0024 221.149 35.0024H222.932V41.0821C222.932 42.172 222.004 42.8318 221.237 43.4329C218.643 45.466 216.558 48.7746 216.558 52.1615C216.558 54.3119 217.002 55.8709 217.559 56.9803C218.184 58.2266 218.624 59.5461 218.858 60.8999H217.51C215.918 60.8999 214.628 62.1901 214.628 63.7834C214.628 65.3766 215.918 66.6668 217.51 66.6668H218.643L217.368 75.1608C217.368 75.1608 217.373 75.1804 217.383 75.1804H221.94C221.94 75.1804 221.955 75.1902 221.955 75.1951V87.7455H221.862C221.862 87.7455 219.723 92.9357 219.723 97.3147C219.723 101.694 221.159 105.858 221.955 107.617C221.955 107.622 221.964 107.627 221.969 107.627H231.357C231.357 107.627 231.366 107.627 231.371 107.617C232.167 105.858 233.603 101.689 233.603 97.3147C233.603 92.9406 231.464 87.7455 231.464 87.7455H231.371V75.1951C231.371 75.1951 231.381 75.1804 231.386 75.1804H235.943C235.943 75.1804 235.962 75.1706 235.958 75.1608L234.688 66.6668H235.821C237.413 66.6668 238.702 65.3766 238.702 63.7834Z" fill="url(#paint6_linear_680_572)"/>
        <path d="M63.7429 216.778C62.1506 216.778 60.8612 218.069 60.8612 219.662V221.011C59.5083 220.776 58.1896 220.336 56.9441 219.711C55.8354 219.154 54.2725 218.709 52.1284 218.709C48.7486 218.709 45.4371 220.796 43.4053 223.396C42.8046 224.163 42.1452 225.092 41.056 225.092H34.9802V223.308C34.9802 221.939 33.8715 220.83 32.5039 220.83C31.1364 220.83 30.0277 221.939 30.0277 223.308V225.038C29.212 224.51 22.4328 220.331 11.9222 220.331C11.9222 220.331 0.42492 220.263 0 228.879C0.42492 237.495 11.9222 237.319 11.9222 237.319C22.4328 237.319 29.212 233.136 30.0277 232.613V234.343C30.0277 235.711 31.1364 236.821 32.5039 236.821C33.8715 236.821 34.9802 235.711 34.9802 234.343V232.559H41.056C42.1452 232.559 42.8046 233.488 43.4053 234.255C45.4371 236.85 48.7437 238.937 52.1284 238.937C54.2774 238.937 55.8354 238.492 56.9441 237.935C58.1896 237.31 59.5083 236.87 60.8612 236.635V237.984C60.8612 239.577 62.1506 240.868 63.7429 240.868C65.3351 240.868 66.6245 239.577 66.6245 237.984V236.85L75.1131 238.126C75.1131 238.126 75.1327 238.121 75.1327 238.111V233.551C75.1327 233.551 75.1424 233.537 75.1473 233.537H87.6898V233.63C87.6898 233.63 92.8767 235.77 97.2529 235.77C101.629 235.77 105.79 234.333 107.549 233.537C107.554 233.537 107.558 233.527 107.558 233.522V224.129C107.558 224.129 107.558 224.119 107.549 224.114C105.79 223.317 101.624 221.881 97.2529 221.881C92.8816 221.881 87.6898 224.021 87.6898 224.021V224.114H75.1473C75.1473 224.114 75.1327 224.104 75.1327 224.099V219.54C75.1327 219.54 75.1229 219.52 75.1131 219.525L66.6245 220.796V219.662C66.6245 218.069 65.3351 216.778 63.7429 216.778Z" fill="url(#paint7_linear_680_572)"/>
        <path d="M390.257 216.778C391.849 216.778 393.139 218.069 393.139 219.662V221.011C394.492 220.776 395.81 220.336 397.056 219.711C398.165 219.154 399.727 218.709 401.872 218.709C405.251 218.709 408.563 220.796 410.595 223.396C411.195 224.163 411.855 225.092 412.944 225.092C412.949 225.092 416.099 225.092 419.02 225.092V223.308C419.02 221.939 420.129 220.83 421.496 220.83C422.864 220.83 423.972 221.939 423.972 223.308V225.038C424.788 224.51 431.567 220.331 442.078 220.331C442.078 220.331 453.575 220.263 454 228.879C453.575 237.495 442.078 237.319 442.078 237.319C431.567 237.319 424.788 233.136 423.972 232.613V234.343C423.972 235.711 422.864 236.821 421.496 236.821C420.129 236.821 419.02 235.711 419.02 234.343V232.559C416.099 232.559 412.949 232.559 412.944 232.559C411.855 232.559 411.195 233.488 410.595 234.255C408.563 236.85 405.256 238.937 401.872 238.937C399.723 238.937 398.165 238.492 397.056 237.935C395.81 237.31 394.492 236.87 393.139 236.635V237.984C393.139 239.577 391.849 240.868 390.257 240.868C388.665 240.868 387.376 239.577 387.376 237.984V236.85L378.887 238.126C378.877 238.126 378.867 238.121 378.867 238.111V233.551C378.867 233.551 378.858 233.537 378.853 233.537H366.31V233.63C366.31 233.63 361.123 235.77 356.747 235.77C352.376 235.77 348.21 234.333 346.451 233.537C346.446 233.537 346.442 233.527 346.442 233.522V229.339V228.317V224.134C346.442 224.134 346.442 224.124 346.451 224.119C348.21 223.322 352.376 221.885 356.747 221.885C361.123 221.885 366.31 224.026 366.31 224.026V224.119H378.853C378.862 224.119 378.867 224.109 378.867 224.104V219.544C378.867 219.544 378.877 219.525 378.887 219.53L387.376 220.801V219.667C387.376 218.073 388.665 216.783 390.257 216.783V216.778Z" fill="url(#paint8_linear_680_572)"/>
        <path d="M119.52 104.533C118.396 103.409 116.57 103.409 115.446 104.533L114.494 105.486C113.703 104.367 113.082 103.116 112.643 101.796C112.252 100.618 111.461 99.1962 109.947 97.6811C107.554 95.2864 103.739 94.4214 100.472 94.8221C99.5045 94.9394 98.3812 95.13 97.6095 94.3578C97.6095 94.3578 95.3774 92.1244 93.3114 90.0571L94.5715 88.7961C95.5386 87.8285 95.5386 86.2597 94.5715 85.2871C93.6045 84.3194 92.0367 84.3194 91.0647 85.2871L89.8437 86.5089C89.6385 85.5608 87.8021 77.8047 80.3685 70.3713C80.3685 70.3713 72.2901 62.1851 65.9016 67.9814C60.1139 74.3739 68.3681 82.3841 68.3681 82.3841C75.8018 89.8225 83.548 91.6601 84.4956 91.8653L83.2745 93.0871C82.3075 94.0548 82.3075 95.6236 83.2745 96.5913C84.2416 97.559 85.8094 97.559 86.7764 96.5913L88.0366 95.3304C90.1025 97.3977 92.3297 99.6263 92.3346 99.6312C93.1063 100.403 92.9158 101.527 92.7986 102.495C92.3981 105.77 93.2626 109.586 95.6558 111.976C97.1748 113.496 98.5912 114.283 99.7682 114.674C101.092 115.114 102.337 115.735 103.456 116.526L102.503 117.479C101.38 118.603 101.38 120.431 102.503 121.555C103.627 122.679 105.453 122.679 106.577 121.555L107.378 120.754L112.477 127.659C112.477 127.659 112.496 127.669 112.501 127.659L115.725 124.434C115.725 124.434 115.739 124.429 115.749 124.434L124.619 133.309L124.55 133.378C124.55 133.378 126.704 138.563 129.801 141.661C132.892 144.755 136.853 146.685 138.661 147.365C138.666 147.365 138.675 147.365 138.675 147.365L141.635 144.403L142.358 143.68L145.318 140.718C145.318 140.718 145.323 140.708 145.318 140.704C144.639 138.895 142.705 134.932 139.618 131.838C136.521 128.74 131.339 126.584 131.339 126.584L131.271 126.653L122.401 117.777C122.401 117.777 122.396 117.763 122.401 117.753L125.625 114.527C125.625 114.527 125.63 114.508 125.625 114.503L118.724 109.401L119.525 108.599C120.648 107.475 120.648 105.647 119.525 104.523L119.52 104.533Z" fill="url(#paint9_linear_680_572)"/>
        <path d="M351.609 121.096C352.732 119.972 352.732 118.144 351.609 117.02L350.657 116.067C351.775 115.275 353.025 114.654 354.344 114.215C355.521 113.824 356.942 113.032 358.457 111.517C360.85 109.122 361.714 105.305 361.314 102.036C361.197 101.068 361.006 99.9438 361.778 99.1716C361.778 99.1716 364.01 96.9382 366.076 94.8709L367.336 96.1318C368.303 97.0995 369.871 97.0995 370.843 96.1318C371.81 95.1641 371.81 93.5953 370.843 92.6227L369.622 91.4009C370.569 91.1957 378.32 89.3581 385.749 81.9197C385.749 81.9197 393.93 73.8362 388.137 67.4437C381.749 61.6523 373.744 69.9117 373.744 69.9117C366.31 77.3501 364.474 85.1013 364.269 86.0494L363.048 84.8276C362.081 83.8599 360.513 83.8599 359.546 84.8276C358.579 85.7953 358.579 87.3641 359.546 88.3318L360.806 89.5927C358.74 91.66 356.513 93.8885 356.508 93.8934C355.736 94.6656 354.613 94.475 353.646 94.3577C350.373 93.957 346.559 94.822 344.17 97.2167C342.651 98.7367 341.865 100.154 341.474 101.332C341.035 102.656 340.415 103.902 339.623 105.022L338.671 104.069C337.548 102.945 335.721 102.945 334.598 104.069C333.474 105.193 333.474 107.021 334.598 108.145L335.399 108.946L328.497 114.048C328.497 114.048 328.487 114.068 328.497 114.073L331.721 117.298C331.721 117.298 331.726 117.313 331.721 117.323L322.851 126.198L322.783 126.13C322.783 126.13 317.601 128.285 314.504 131.383C311.413 134.477 309.483 138.441 308.804 140.249C308.804 140.254 308.804 140.264 308.804 140.264L311.764 143.225L312.487 143.949L315.447 146.91C315.447 146.91 315.457 146.915 315.461 146.91C317.269 146.231 321.23 144.296 324.321 141.207C327.418 138.108 329.572 132.923 329.572 132.923L329.503 132.854L338.373 123.979C338.373 123.979 338.388 123.974 338.397 123.979L341.621 127.205C341.621 127.205 341.64 127.21 341.645 127.205L346.744 120.299L347.545 121.101C348.669 122.225 350.495 122.225 351.619 121.101L351.609 121.096Z" fill="url(#paint10_linear_680_572)"/>
    </g>
    <defs>
        <linearGradient id="paint0_linear_680_572" x1="227.137" y1="107.089" x2="227.137" y2="260.778" gradientUnits="userSpaceOnUse">
            <stop stop-color="#B2D9F8"/>
            <stop offset="0.99" stop-color="#569ED8"/>
        </linearGradient>
        <linearGradient id="paint1_linear_680_572" x1="226.697" y1="79.7893" x2="227.23" y2="262.411" gradientUnits="userSpaceOnUse">
            <stop offset="0.01" stop-color="#B2D9F8"/>
            <stop offset="0.99" stop-color="#569ED8"/>
        </linearGradient>
        <linearGradient id="paint2_linear_680_572" x1="172.371" y1="126.682" x2="193.345" y2="286.305" gradientUnits="userSpaceOnUse">
            <stop stop-color="#89CCF7"/>
            <stop offset="0.11" stop-color="#A8D7F5"/>
            <stop offset="0.38" stop-color="white"/>
        </linearGradient>
        <linearGradient id="paint3_linear_680_572" x1="290.171" y1="64.6924" x2="204.018" y2="340.37" gradientUnits="userSpaceOnUse">
            <stop stop-color="#89CCF7"/>
            <stop offset="0.11" stop-color="#A8D7F5"/>
            <stop offset="0.38" stop-color="white"/>
        </linearGradient>
        <linearGradient id="paint4_linear_680_572" x1="182.481" y1="158.258" x2="210.774" y2="256.614" gradientUnits="userSpaceOnUse">
            <stop stop-color="#89CCF7"/>
            <stop offset="0.11" stop-color="#A8D7F5"/>
            <stop offset="0.38" stop-color="white"/>
        </linearGradient>
        <linearGradient id="paint5_linear_680_572" x1="215.591" y1="267.782" x2="215.591" y2="236.914" gradientUnits="userSpaceOnUse">
            <stop stop-color="#4F301E"/>
            <stop offset="0.12" stop-color="#523422"/>
            <stop offset="0.26" stop-color="#5C402F"/>
            <stop offset="0.39" stop-color="#6D5345"/>
            <stop offset="0.53" stop-color="#856F63"/>
            <stop offset="0.68" stop-color="#A3938A"/>
            <stop offset="0.82" stop-color="#C9BFBA"/>
            <stop offset="0.97" stop-color="#F4F2F1"/>
            <stop offset="1" stop-color="white"/>
        </linearGradient>
        <linearGradient id="paint6_linear_680_572" x1="226.668" y1="99.2158" x2="226.668" y2="-258.574" gradientUnits="userSpaceOnUse">
            <stop stop-color="#B2D9F8"/>
            <stop offset="0.99" stop-color="#569ED8"/>
        </linearGradient>
        <linearGradient id="paint7_linear_680_572" x1="53.7792" y1="183.394" x2="53.7792" y2="243.956" gradientUnits="userSpaceOnUse">
            <stop stop-color="#B2D9F8"/>
            <stop offset="0.99" stop-color="#569ED8"/>
        </linearGradient>
        <linearGradient id="paint8_linear_680_572" x1="400.221" y1="176.781" x2="400.221" y2="242.099" gradientUnits="userSpaceOnUse">
            <stop stop-color="#B5D8F4"/>
            <stop offset="0.99" stop-color="#569ED8"/>
        </linearGradient>
        <linearGradient id="paint9_linear_680_572" x1="78.8934" y1="79.5251" x2="268.108" y2="276.752" gradientUnits="userSpaceOnUse">
            <stop stop-color="#B2D9F8"/>
            <stop offset="0.99" stop-color="#569ED8"/>
        </linearGradient>
        <linearGradient id="paint10_linear_680_572" x1="349.499" y1="64.8828" x2="349.499" y2="296.24" gradientUnits="userSpaceOnUse">
            <stop stop-color="#B4D9F6"/>
            <stop offset="0.99" stop-color="#569ED8"/>
        </linearGradient>
        <clipPath id="clip0_680_572">
            <rect width="454" height="262" fill="white"/>
        </clipPath>
    </defs>
</svg>
