<svg width="23" height="28" viewBox="0 0 23 28" fill="none" xmlns="http://www.w3.org/2000/svg">
    <path d="M11.9389 13.6702C11.9389 13.6702 4.1222 14.6546 4.20375 10.2732C4.29969 5.10431 9.85078 1.10266 14.2135 0C14.2135 0 9.31555 0.907675 5.99654 3.1361C2.67754 5.36452 0 8.46937 0 11.0966C0 13.7238 2.70496 14.997 3.93579 15.209C5.16662 15.421 7.73657 15.5541 11.9389 13.6702Z" fill="#323440"/>
    <path d="M0.732422 28C0.732422 28 7.50475 25.5834 12.8838 20.7556C18.2629 15.9278 19.2258 8.48295 8.15512 10.6183C8.15512 10.6183 12.6837 8.75607 15.954 8.75607C19.2244 8.75607 22.9971 9.36753 22.9971 13.126C22.9998 18.2343 13.2265 27.464 0.732422 28Z" fill="#323440"/>
    <path d="M20.5806 2.04567C21.3023 3.28489 20.7328 4.95009 19.3087 5.76469C17.8846 6.57928 16.1459 6.23619 15.4243 4.99697C14.7026 3.75775 15.2982 2.1367 16.6956 1.27795C17.9113 0.53061 19.859 0.806445 20.5806 2.04567Z" fill="#323440"/>
</svg>
