<svg width="18" height="22" viewBox="0 0 336 413" fill="none" xmlns="http://www.w3.org/2000/svg">
    <path d="M174.21 201.21C174.21 201.21 60.15 215.7 61.34 151.21C62.74 75.13 143.74 16.23 207.4 0C207.4 0 135.93 13.36 87.5 46.16C39.07 78.96 0 124.66 0 163.33C0 202 39.47 220.74 57.43 223.86C75.39 226.98 112.89 228.94 174.21 201.21Z" fill="white"/>
    <path d="M10.6899 412.13C10.6899 412.13 109.51 376.56 188 305.5C266.49 234.44 280.54 124.86 119 156.29C119 156.29 185.08 128.88 232.8 128.88C280.52 128.88 335.57 137.88 335.57 193.2C335.61 268.39 193 404.24 10.6899 412.13Z" fill="white"/>
    <path d="M300.3 30.1102C310.83 48.3502 302.52 72.8602 281.74 84.8502C260.96 96.8402 235.59 91.7902 225.06 73.5502C214.53 55.3102 223.22 31.4502 243.61 18.8102C261.35 7.81018 289.77 11.8702 300.3 30.1102Z" fill="white"/>
</svg>