<svg width="18" height="14" viewBox="0 0 18 14" fill="none" xmlns="http://www.w3.org/2000/svg">
    <path d="M0 12.8333C0 13.4777 0.522334 14 1.16667 14H16.8333C17.4777 14 18 13.4777 18 12.8333C18 12.189 17.4777 11.6667 16.8333 11.6667H1.16667C0.522334 11.6667 0 12.189 0 12.8333ZM0 7C0 7.64433 0.522334 8.16667 1.16667 8.16667H16.8333C17.4777 8.16667 18 7.64433 18 7C18 6.35567 17.4777 5.83333 16.8333 5.83333H1.16667C0.522334 5.83333 0 6.35567 0 7ZM1.16667 0C0.522334 0 0 0.522334 0 1.16667C0 1.811 0.522334 2.33333 1.16667 2.33333H16.8333C17.4777 2.33333 18 1.811 18 1.16667C18 0.522334 17.4777 0 16.8333 0H1.16667Z" fill="#333333"/>
</svg>
