<svg width="243" height="40" viewBox="0 0 243 40" fill="none" xmlns="http://www.w3.org/2000/svg">
    <g clip-path="url(#clip0_680_813)">
        <g filter="url(#filter0_d_680_813)">
            <path d="M15.7896 15.6973C13.9431 15.7081 13.258 15.7784 12.6157 16.1027C12.3213 16.0108 11.7057 15.4649 11.5826 15.1946L11.679 14.9676C12.2303 15.0487 13.4078 15.0595 15.415 15.0595C16.5925 15.0595 17.4382 15.0487 17.5452 15.0325C17.7058 15.0054 18.027 14.8054 18.1768 14.6703C18.605 14.6703 19.5149 15.2217 19.5149 15.4973C19.5149 15.5784 19.3544 15.7946 19.3008 15.7784C19.076 15.7244 17.481 15.6973 15.795 15.6973H15.7896ZM12.8458 18.4C12.8458 17.4 14.0394 16.4919 15.8057 16.4649C17.5345 16.4379 18.5622 17.1568 18.5622 18.1676C18.5622 19.2649 17.2616 20.0865 15.6987 20.1135C13.8521 20.1406 12.8458 19.4649 12.8458 18.3946V18.4ZM13.2205 13.2757L13.3115 13.0433C13.7397 13.1244 14.5425 13.1946 15.1848 13.1946C15.7736 13.1946 16.6728 13.0865 17.0475 12.9676C17.2241 12.9676 17.77 13.5081 17.77 13.6865C17.77 13.7676 17.6469 13.9838 17.5827 14C17.3418 14.0433 15.2276 14.0919 14.8102 14.0649C14.4355 14.0379 13.4292 13.5352 13.2151 13.2811L13.2205 13.2757ZM15.8325 19.4379C16.5818 19.4108 17.0528 19.0595 17.0528 18.3676C17.0528 17.6757 16.4641 17.0973 15.6987 17.1244C14.8797 17.1514 14.4248 17.5838 14.4248 18.2325C14.4248 18.9514 15.0028 19.4649 15.8325 19.4379ZM22.068 22.8433C22.068 24.2108 20.5265 25.1676 18.6157 25.1946C16.4587 25.2217 15.2705 24.4108 15.2705 23.0865C15.2705 21.8541 16.6889 20.7622 18.7388 20.7352C20.9494 20.7081 22.0734 21.5892 22.0734 22.8433H22.068ZM20.3927 23.0217C20.3927 22.1135 19.6541 21.4108 18.6104 21.4379C17.5667 21.4649 16.9244 22.0433 16.9244 22.9135C16.9244 23.8757 17.6898 24.5244 18.7174 24.4973C19.7344 24.4703 20.3927 23.9676 20.3927 23.0217ZM24.8352 17.2217C24.8352 17.3135 24.6747 17.5352 24.6051 17.519C24.4445 17.4919 23.1171 17.4919 22.0092 17.4919V19.573C22.0252 19.8162 21.0992 20.5622 20.8156 20.5622C20.7085 20.5622 20.3874 20.4 20.3178 20.3352V12.9514C20.3178 12.8433 20.3071 12.773 20.2375 12.7081C20.0609 12.5298 19.6327 12.3568 19.2205 12.3568V12.1027C19.7986 11.6811 21.2705 11.9135 21.7897 12.0865C22.0038 12.1514 22.0466 12.2757 22.0306 12.6271C22.0199 12.773 22.0038 14.9784 22.0038 16.8703C22.8067 16.8271 23.1813 16.6649 23.465 16.3135C23.9628 16.3135 24.8299 16.919 24.8299 17.2217H24.8352Z" fill="white"/>
            <path d="M38.1307 22.8322C38.1307 22.9241 37.954 23.1944 37.8737 23.1836C37.1779 23.0755 34.1645 23.0484 31.8255 23.0647C29.3741 23.0809 27.9182 23.2268 26.7942 23.6484C26.3767 23.5403 25.5204 22.8755 25.3491 22.5403L25.4829 22.2268C26.0717 22.443 28.1859 22.416 30.9156 22.389C30.9156 21.9025 30.8888 20.7133 30.8781 20.616C30.8621 20.4917 30.7818 20.3565 30.6747 20.3025L30.7176 20.1241C31.2528 20.0268 32.6605 20.2052 32.6337 20.3511C32.607 20.5565 32.5802 21.4484 32.5802 21.6376C32.5802 21.7295 32.3554 22.1511 32.2216 22.3674C33.656 22.3511 35.1012 22.3241 35.2189 22.3133C35.3956 22.2863 35.9415 21.9349 36.1449 21.7565C36.723 21.7565 38.1414 22.5133 38.1414 22.8268L38.1307 22.8322ZM27.5543 13.6809L27.6346 13.4917C27.945 13.5349 28.3839 13.562 28.8121 13.562L33.6025 13.5187C33.6935 13.5187 33.8434 13.4214 33.913 13.3403C34.1966 13.3511 35.2778 13.5025 35.4544 13.5565C35.5615 13.5944 35.5722 13.6484 35.5722 13.8106L35.4277 16.6647C35.4277 16.7728 35.3635 16.7998 35.2671 16.7998L29.7113 16.8106V18.9187C29.7113 18.962 29.7755 18.9998 30.0057 19.016C30.2626 19.0268 33.7952 18.9728 33.9932 18.962C34.1806 18.9511 34.5124 18.7187 34.6462 18.5565C35.128 18.5565 36.1717 19.0593 36.1717 19.3403C36.1717 19.4214 36.0486 19.6268 35.9683 19.6268L29.7434 19.6917C29.6364 19.6917 29.5293 19.6809 29.4223 19.6647C29.0904 19.5998 27.9611 19.3511 27.9611 19.2593V16.1782L33.7577 16.162V14.1728C30.2626 14.1728 29.3687 14.2376 28.6194 14.6052C28.325 14.4971 27.656 13.9133 27.5489 13.6701L27.5543 13.6809Z" fill="white"/>
            <path d="M38.9014 18.346L39.0352 18.0325C39.6775 18.2649 42.1396 18.2108 45.244 18.1838C46.823 18.1676 48.6321 18.1406 48.7659 18.1298C48.9372 18.1027 49.4885 17.7514 49.6919 17.573C50.27 17.573 51.6884 18.3298 51.6884 18.6433C51.6884 18.7352 51.5117 19.0054 51.4368 18.9946C50.741 18.8865 47.7276 18.8595 45.3886 18.8703C42.9371 18.8865 41.4813 19.0325 40.3573 19.4541C39.9398 19.346 39.0834 18.6811 38.9121 18.346H38.9014ZM43.6008 25.0217C43.5098 25.0217 43.3974 25.0217 43.2797 24.9946C42.9425 24.9406 41.8613 24.6973 41.8613 24.6V22.1514L47.2137 22.1352V20.7838C44.12 20.7838 43.0763 20.8379 42.3698 21.173C42.0754 21.0649 41.4599 20.5244 41.3528 20.2811L41.4438 20.0919C41.7382 20.1352 42.1396 20.1622 42.5571 20.1622L47.0799 20.119C47.1441 20.119 47.3047 20.0108 47.3636 19.9406C47.6419 19.9406 48.7017 20.0865 48.889 20.1568C48.9961 20.1838 49.0228 20.2487 49.0068 20.4L48.8623 22.6325C48.8623 22.7406 48.798 22.7676 48.6856 22.7676L43.5848 22.7838V24.2054C43.5848 24.2487 43.649 24.2973 43.8792 24.3135C44.1361 24.3244 47.4385 24.2595 47.6259 24.2487C47.8507 24.2325 48.1879 23.9622 48.3484 23.7892C48.8837 23.7892 49.997 24.3568 49.997 24.6541C49.997 24.7352 49.8471 24.9784 49.7561 24.9784L43.6008 25.0217ZM43.5741 16.9622C43.467 16.9622 43.3707 16.9622 43.2529 16.9352C42.9318 16.8811 41.8078 16.6379 41.8078 16.5406V14.3514L47.0264 14.3352L47.0424 13.146C43.8685 13.146 43.1459 13.1892 42.4394 13.5514C42.145 13.4433 41.5027 12.8865 41.3956 12.6325L41.4759 12.4433C41.7864 12.4973 42.2253 12.5081 42.6695 12.5081L46.8872 12.4649C46.9782 12.4649 47.1281 12.373 47.1977 12.3027C47.476 12.3027 48.5518 12.4649 48.7231 12.519C48.8302 12.546 48.8569 12.6162 48.8462 12.7784L48.6963 14.8325C48.6963 14.9298 48.6428 14.9676 48.5358 14.9676L43.558 14.9784V16.1946C43.558 16.2379 43.6115 16.2757 43.8417 16.2865C44.0933 16.3027 47.0799 16.2433 47.2672 16.2325C47.4546 16.2162 47.7757 16.0271 47.9095 15.8649C48.3913 15.8649 49.3815 16.3406 49.3815 16.6379C49.3815 16.719 49.2583 16.8973 49.1781 16.8973L43.5848 16.9514L43.5741 16.9622Z" fill="white"/>
            <path d="M62.5002 19.7947C62.2326 19.319 60.9748 18.0109 60.3432 17.5622C58.9623 18.8757 57.3459 19.9028 56.179 20.2379C56.072 20.2649 55.9917 20.2757 55.9275 20.2757C55.7669 20.2757 55.6438 20.1568 55.6438 19.9947C57.0354 19.2487 60.0756 15.9784 60.8249 14.4541C58.775 14.4271 58.1594 14.519 57.5439 14.9514C57.2335 14.8595 56.5644 14.2595 56.4466 13.9893L56.5644 13.746C56.8481 13.8001 57.3137 13.8109 57.6509 13.8109L60.7714 13.7839C60.8945 13.7839 61.0818 13.6757 61.1728 13.5676C61.4672 13.5947 62.4735 13.8379 62.6983 13.9352C62.7893 13.9893 62.7893 14.0811 62.7518 14.1893C62.3771 15.2163 61.6117 16.2703 60.6911 17.2055C61.3334 17.2866 62.8481 17.9352 63.2335 18.2757C63.4583 18.6433 63.1532 19.7082 62.8053 19.8866L62.4949 19.7893L62.5002 19.7947ZM66.5681 22.5947C66.5681 24.1244 64.9998 25.1784 63.0729 25.2055C60.9159 25.2325 59.7009 24.3298 59.7009 22.8541C59.7009 21.4757 61.1354 20.2703 63.1961 20.2433C65.3905 20.2163 66.5681 21.2055 66.5681 22.5947ZM64.8928 22.7839C64.8928 21.7406 64.1006 20.919 63.0729 20.946C62.0132 20.973 61.3602 21.6487 61.3602 22.6757C61.3602 23.773 62.163 24.5298 63.1961 24.5028C64.2291 24.4757 64.8981 23.9082 64.8981 22.7839H64.8928ZM66.7126 12.6163C66.6965 12.8595 66.6591 18.6974 66.6858 19.1028C66.6965 19.3352 65.7599 20.0649 65.4922 20.0649C65.3745 20.0649 65.048 19.9028 64.9838 19.8325V16.5893C64.0203 16.6163 63.6189 16.6811 63.2014 16.9136C62.9605 16.8163 62.4895 16.3839 62.3985 16.1406L62.5056 15.9352C62.8803 15.9784 63.9668 15.9622 64.9838 15.946V12.946C64.9838 12.8379 64.9731 12.7568 64.9035 12.692C64.7268 12.5136 64.3147 12.3406 63.9133 12.3406V12.0974C64.4753 11.6757 65.9365 11.9082 66.4557 12.0811C66.6698 12.146 66.7233 12.2703 66.7126 12.6109V12.6163Z" fill="white"/>
            <path d="M77.0642 16.5891C77.0642 16.654 76.9036 16.8864 76.8501 16.8756C76.6253 16.8215 74.9874 16.7945 73.2747 16.8107C71.3853 16.8107 70.6894 16.8918 70.0472 17.1999C69.7528 17.108 69.1212 16.5675 69.0034 16.308L69.0998 16.0648C69.6618 16.1458 70.8661 16.1621 72.9 16.1621C74.1043 16.1621 74.9607 16.1458 75.0677 16.135C75.2444 16.108 75.5762 15.908 75.7261 15.7567C76.1543 15.7567 77.0642 16.3242 77.0642 16.5945V16.5891ZM76.0847 20.0918C76.0847 21.4864 74.7733 22.5242 73.1676 22.5513C71.321 22.5783 70.2613 21.7134 70.2613 20.3458C70.2613 19.0594 71.4923 17.9242 73.2747 17.8972C75.057 17.8702 76.0847 18.7891 76.0847 20.0864V20.0918ZM70.652 13.9296L70.743 13.7026C71.1605 13.7837 72.0008 13.8486 72.6859 13.8486C73.2854 13.8486 74.2274 13.7404 74.6021 13.6215C74.7787 13.6215 75.3246 14.1513 75.3246 14.3404C75.3246 14.4215 75.2015 14.6377 75.1373 14.654C74.8965 14.6972 72.7287 14.7513 72.3005 14.7188C71.9152 14.6918 70.8821 14.1945 70.652 13.935V13.9296ZM74.5593 20.308C74.5593 19.3188 73.9437 18.5513 73.1676 18.5783C72.3487 18.6053 71.883 19.1999 71.883 20.1729C71.883 21.1999 72.4718 21.9026 73.3014 21.8756C74.0936 21.8486 74.5593 21.3621 74.5593 20.308ZM82.256 19.1729C82.256 19.2702 82.0955 19.4864 82.0259 19.4702C81.8653 19.4431 80.5647 19.4431 79.4567 19.4431V23.108C79.4567 23.6053 79.4567 24.3404 79.4835 24.7188C79.4835 24.854 78.6271 25.1783 78.3327 25.1783C78.1721 25.1783 77.7546 24.9513 77.7546 24.8648V13.0107C77.7546 12.9026 77.7279 12.8215 77.6637 12.7513C77.487 12.5729 77.0053 12.3729 76.5664 12.3729V12.1134C77.1819 11.6648 78.6539 11.8972 79.2159 12.0756C79.43 12.1404 79.4835 12.2648 79.4728 12.6594C79.4567 12.8053 79.4567 15.9999 79.4567 18.8215C80.2489 18.7783 80.6235 18.6161 80.8912 18.2648C81.3889 18.2648 82.256 18.8702 82.256 19.1675V19.1729Z" fill="white"/>
            <path d="M82.5932 22.308C84.3488 21.335 87.1963 17.5242 87.8119 15.5513C85.6548 15.508 84.9215 15.6161 84.29 16.0377C83.9688 15.9458 83.2998 15.3621 83.1927 15.0756L83.2998 14.8431C83.6102 14.8972 84.0223 14.908 84.4238 14.908L87.7423 14.8702C87.8493 14.8702 88.0099 14.7621 88.0902 14.6648C88.4113 14.6918 89.4283 14.9188 89.6424 15.0269C89.7227 15.0702 89.7494 15.1458 89.7227 15.2702C88.8235 18.7458 85.521 21.8377 83.0857 22.5296C82.9786 22.5567 82.909 22.5729 82.8448 22.5729C82.6949 22.5729 82.5879 22.454 82.5879 22.3026L82.5932 22.308ZM91.9493 24.8648V13.0107C91.9493 12.9026 91.9225 12.8215 91.8583 12.7513C91.6817 12.5729 91.1999 12.3729 90.761 12.3729V12.1134C91.3766 11.6648 92.8485 11.8972 93.4105 12.0756C93.6246 12.1404 93.6781 12.2648 93.6674 12.6594C93.6513 12.9134 93.6513 22.3945 93.6513 23.108C93.6513 23.6053 93.6514 24.3404 93.6781 24.7188C93.6781 24.854 92.8217 25.1783 92.5273 25.1783C92.3668 25.1783 91.9493 24.9513 91.9493 24.8648Z" fill="white"/>
            <path d="M108.21 19.1189C108.21 19.2378 108.167 19.308 108.033 19.3783C107.402 19.6486 105.544 20.027 103.949 20.3135C104.367 20.4053 104.849 20.5297 104.966 20.6107C104.87 22.2053 104.121 24.0053 103.28 24.627C103.13 24.7621 103.013 24.8324 102.852 24.8324C102.788 24.8324 102.718 24.8053 102.676 24.7783C102.863 24.1026 103.093 21.8432 103.12 20.8972C103.12 20.7459 103.093 20.5837 103.039 20.4648C102.665 20.5189 102.328 20.5729 102.06 20.5999C101.701 20.654 101.027 20.8053 100.695 20.9405C100.32 20.8324 99.5283 20.1945 99.3303 19.8702L99.448 19.6107C99.8655 19.6756 100.572 19.6918 101.134 19.6648C102.686 19.5999 107.343 19.108 108.108 18.908C108.162 18.9513 108.199 19.0324 108.199 19.1243L108.21 19.1189ZM100.899 15.9945C100.899 14.681 102.21 13.5351 104.03 13.508C105.946 13.481 107 14.3999 107 15.7135C107 17.1729 105.582 18.227 103.896 18.254C101.98 18.281 100.899 17.3999 100.899 15.9945ZM102.531 15.8053C102.531 16.8486 103.173 17.5783 104.03 17.5513C104.875 17.5243 105.411 17.0107 105.411 15.9567C105.411 14.9567 104.779 14.1729 103.923 14.1999C103.05 14.227 102.531 14.8486 102.531 15.8107V15.8053ZM110.415 24.7135C110.415 24.8486 109.559 25.1729 109.264 25.1729C109.104 25.1729 108.686 24.9459 108.686 24.8594V13.0053C108.686 12.8972 108.66 12.8162 108.595 12.7459C108.419 12.5675 107.937 12.3675 107.498 12.3675V12.108C108.114 11.6594 109.585 11.8918 110.148 12.0702C110.362 12.1351 110.415 12.2594 110.404 12.654C110.388 12.908 110.388 22.3891 110.388 23.1026C110.388 23.5999 110.388 24.3351 110.415 24.7135Z" fill="white"/>
            <path d="M116.897 15.9243C115.05 15.9243 114.365 15.9892 113.723 16.3189C113.429 16.227 112.813 15.6811 112.69 15.4108L112.781 15.1838C113.332 15.2486 114.51 15.2756 116.517 15.2756C117.694 15.2756 118.54 15.2594 118.647 15.2486C118.808 15.2216 119.129 15.0162 119.279 14.8702C119.707 14.8702 120.617 15.4378 120.617 15.7081C120.617 15.7729 120.456 15.9946 120.403 15.9783C120.173 15.9243 118.583 15.9135 116.897 15.9243ZM113.964 18.6973C113.964 17.654 115.157 16.7351 116.924 16.7081C118.636 16.6811 119.669 17.4108 119.669 18.454C119.669 19.5892 118.369 20.427 116.817 20.454C114.981 20.4811 113.964 19.7892 113.964 18.6973ZM114.338 13.454L114.429 13.2216C114.858 13.3027 115.661 13.3729 116.303 13.3729C116.881 13.3729 117.775 13.2648 118.149 13.1459C118.326 13.1459 118.872 13.6702 118.872 13.8648C118.872 13.9459 118.754 14.1621 118.685 14.1783C118.444 14.2216 116.34 14.2702 115.928 14.2432C115.553 14.2162 114.547 13.7135 114.333 13.4594L114.338 13.454ZM116.95 19.7784C117.7 19.7513 118.155 19.3838 118.155 18.654C118.155 17.9243 117.566 17.3567 116.801 17.3838C115.998 17.4108 115.553 17.8432 115.553 18.5189C115.553 19.2756 116.132 19.8054 116.945 19.7784H116.95ZM124.39 24.3892C124.39 24.4973 124.214 24.7513 124.149 24.7513L118.272 24.8324C118.149 24.8324 118.016 24.8162 117.871 24.7892C117.47 24.7081 116.426 24.4108 116.426 24.3027V22.0054C116.426 21.9243 116.41 21.8432 116.362 21.7892C116.239 21.6811 115.944 21.5729 115.666 21.5729V21.3567C116.121 21.0216 117.486 21.1405 117.914 21.2648C118.091 21.3081 118.144 21.4162 118.144 21.6162L118.128 23.9946C118.128 24.0486 118.181 24.0865 118.438 24.1027C118.722 24.1135 121.666 24.0594 121.81 24.0486C121.998 24.0216 122.437 23.6702 122.603 23.454C123.229 23.454 124.396 24.0486 124.396 24.3892H124.39ZM125.943 17.9135C125.943 18.0054 125.782 18.227 125.718 18.2108C125.557 18.1838 124.246 18.1838 123.122 18.1838V21.3729C123.138 21.627 122.212 22.454 121.928 22.454C121.821 22.454 121.5 22.3027 121.436 22.2216V13C121.436 12.8919 121.409 12.8108 121.339 12.7405C121.168 12.5621 120.686 12.3621 120.253 12.3621V12.1027C120.868 11.654 122.34 11.8865 122.902 12.0648C123.116 12.1297 123.17 12.254 123.143 12.6486C123.127 12.7675 123.127 15.2594 123.116 17.5567C123.919 17.5135 124.294 17.3513 124.578 17C125.07 17 125.943 17.6054 125.943 17.9081V17.9135Z" fill="white"/>
            <path d="M142.594 19.6054C142.594 19.6973 142.417 19.9675 142.342 19.9567C141.727 19.8648 139.249 19.8216 137.054 19.8324V23.2919C137.054 23.7405 137.07 24.3189 137.081 24.7135C137.081 24.8486 136.235 25.1729 135.93 25.1729C135.78 25.1729 135.352 24.9459 135.352 24.8594V19.8432C133.452 19.8865 132.232 20.0486 131.257 20.4108C130.84 20.3027 129.984 19.6432 129.812 19.3027L129.946 18.9892C130.588 19.2162 133.051 19.1621 136.155 19.1351C137.734 19.1243 139.543 19.0919 139.677 19.0811C139.848 19.054 140.399 18.7027 140.603 18.5243C141.181 18.5243 142.599 19.2811 142.599 19.5946L142.594 19.6054ZM132.633 15.3892C132.633 14.0486 134.121 12.8054 136.219 12.7784C138.483 12.7513 139.741 13.7784 139.741 15.1729C139.741 16.5675 138.226 17.6757 136.155 17.7027C133.853 17.7297 132.633 16.7838 132.633 15.3892ZM134.346 15.2378C134.346 16.2919 135.138 17.0216 136.262 16.9946C137.322 16.9675 138.028 16.3729 138.028 15.3297C138.028 14.2324 137.225 13.4648 136.112 13.4919C135.015 13.5189 134.346 14.2216 134.346 15.2378Z" fill="white"/>
            <path d="M145.511 22.0486C145.163 21.9405 144.291 21.5891 144.291 21.4918V17.681L148.305 17.6702V15.2216C146.121 15.2216 145.655 15.2756 144.97 15.6432C144.687 15.5513 144.06 14.9675 143.953 14.7405L144.044 14.5351C144.366 14.5891 144.756 14.5999 145.158 14.5999L148.144 14.5621C148.225 14.5621 148.401 14.4378 148.466 14.3567C148.733 14.3567 149.739 14.5189 149.927 14.5729C150.034 14.6162 150.044 14.681 150.044 14.8324L149.895 18.1567C149.895 18.2648 149.83 18.3026 149.734 18.3026L145.971 18.3189V20.9675C145.971 21.0107 146.025 21.0378 146.212 21.0378C147.192 21.0216 151.045 20.4972 151.698 20.2648C151.763 20.3189 151.789 20.3837 151.789 20.481C151.789 20.5999 151.736 20.6864 151.613 20.7513C150.714 21.227 146.967 22.0378 145.752 22.0918C145.688 22.0918 145.591 22.0756 145.495 22.0486H145.511ZM152.555 24.8594V13.0053C152.555 12.8972 152.528 12.8162 152.464 12.7459C152.287 12.5675 151.805 12.3675 151.367 12.3675V12.108C151.982 11.6594 153.454 11.8918 154.016 12.0702C154.23 12.1351 154.284 12.2594 154.273 12.654C154.257 12.908 154.257 22.3891 154.257 23.1026C154.257 23.5999 154.257 24.3351 154.284 24.7135C154.284 24.8486 153.427 25.1729 153.133 25.1729C152.972 25.1729 152.555 24.9459 152.555 24.8594Z" fill="white"/>
            <path d="M169.538 18.1461C169.538 18.238 169.361 18.5137 169.281 18.4975C168.585 18.3893 165.572 18.3623 163.233 18.3731C160.781 18.3893 159.326 18.5353 158.202 18.9569C157.784 18.8488 156.928 18.1839 156.756 17.8488L156.89 17.5353C157.533 17.7623 159.995 17.7137 163.099 17.6812C164.678 17.6704 166.487 17.6434 166.621 17.6272C166.798 17.6002 167.344 17.2488 167.547 17.0704C168.125 17.0704 169.543 17.8272 169.543 18.1407L169.538 18.1461ZM159.524 13.211C159.267 13.1029 158.988 12.9677 158.865 12.8704V12.5893C159.443 12.6326 164.378 12.6002 164.539 12.5893C164.699 12.5731 165.058 12.3029 165.192 12.1299C165.7 12.1299 166.878 12.6704 166.878 12.9839C166.878 13.065 166.733 13.3083 166.674 13.2975C166.567 13.2866 163.276 13.2704 161.252 13.2866V15.438C161.252 15.4758 161.317 15.5299 161.547 15.5461C161.841 15.5569 164.491 15.5191 164.694 15.5029C164.871 15.4866 165.245 15.1893 165.39 15.0002C165.952 15.0002 167.103 15.5407 167.103 15.838C167.103 15.9191 166.98 16.1515 166.915 16.1515L161.402 16.2056C161.279 16.2056 161.145 16.1947 160.985 16.1515C160.626 16.0866 159.513 15.8002 159.513 15.692V13.2164L159.524 13.211ZM167.852 24.6596C167.852 24.7407 167.702 24.9839 167.611 24.9839L161.456 25.0272C161.365 25.0272 161.252 25.0272 161.135 25.0002C160.803 24.9461 159.716 24.7029 159.716 24.6056V22.011L165.069 22.0002V20.5245C161.975 20.5245 160.931 20.5785 160.225 20.9191C159.93 20.811 159.315 20.2704 159.208 20.0272L159.304 19.838C159.599 19.8812 160 19.9029 160.417 19.9029L164.94 19.865C165.004 19.865 165.17 19.7569 165.224 19.6866C165.508 19.6866 166.562 19.8326 166.749 19.9029C166.856 19.9299 166.867 20.0002 166.867 20.1461L166.717 22.4974C166.717 22.6056 166.653 22.6326 166.541 22.6326L161.44 22.6488V24.2164C161.44 24.2596 161.504 24.3083 161.734 24.3245C161.986 24.3353 165.294 24.2704 165.481 24.2596C165.711 24.2434 166.043 23.9731 166.203 23.8002C166.739 23.8002 167.852 24.3677 167.852 24.665V24.6596Z" fill="white"/>
            <path d="M170.137 21.6053L170.255 21.3513C170.673 21.4053 171.379 21.4162 171.941 21.3891C173.483 21.3351 178.139 20.8216 178.915 20.6053C178.969 20.6594 179.006 20.7405 179.006 20.8216C179.006 20.9567 178.964 21.027 178.83 21.0756C177.893 21.481 174.414 22.1297 172.862 22.3189C172.503 22.3729 171.829 22.5243 171.497 22.6594C171.122 22.5513 170.33 21.9135 170.132 21.6053H170.137ZM171.438 16.6162C171.438 15.1297 172.792 13.8324 174.703 13.8053C176.71 13.7783 177.807 14.8324 177.807 16.3351C177.807 17.9729 176.346 19.1621 174.58 19.1891C172.573 19.2162 171.433 18.2162 171.433 16.6216L171.438 16.6162ZM176.175 16.5729C176.175 15.3675 175.49 14.4648 174.607 14.4918C173.697 14.5189 173.108 15.2594 173.108 16.427C173.108 17.5945 173.804 18.508 174.714 18.481C175.597 18.454 176.175 17.8486 176.175 16.5729ZM179.493 24.8594V13.0053C179.493 12.8972 179.467 12.8162 179.402 12.7459C179.226 12.5675 178.744 12.3675 178.305 12.3675V12.108C178.921 11.6594 180.393 11.8918 180.955 12.0702C181.169 12.1351 181.222 12.2594 181.212 12.654C181.196 12.908 181.196 22.3891 181.196 23.1026C181.196 23.5999 181.196 24.3351 181.222 24.7135C181.222 24.8486 180.366 25.1729 180.072 25.1729C179.911 25.1729 179.493 24.9459 179.493 24.8594Z" fill="white"/>
            <path d="M193.779 19.6594C193.485 19.281 192.505 18.4972 191.916 18.1567C190.429 19.335 188.652 20.1999 187.485 20.454C187.367 20.481 187.233 20.4972 187.174 20.4972C186.998 20.4972 186.88 20.3458 186.88 20.2107C188.288 19.6269 191.403 16.9675 192.195 15.7621C190.118 15.735 189.315 15.8269 188.716 16.2377C188.395 16.1458 187.736 15.5729 187.618 15.2918L187.736 15.0486C188.004 15.1026 188.486 15.1134 188.807 15.1134L192.141 15.0864C192.275 15.0864 192.452 14.9783 192.543 14.881C192.853 14.908 193.881 15.1513 194.095 15.2486C194.191 15.2918 194.202 15.3945 194.159 15.5026C193.774 16.3296 193.099 17.1134 192.323 17.7999C192.992 17.854 194.052 18.054 194.4 18.2323C194.641 18.4756 194.4 19.5729 194.068 19.7188L193.774 19.654L193.779 19.6594ZM188.694 13.2377L188.791 13.0215C189.192 13.0864 190.011 13.1567 190.627 13.1567C191.189 13.1567 192.125 13.0486 192.489 12.9296C192.666 12.9296 193.228 13.4594 193.228 13.6486C193.228 13.7296 193.094 13.9458 193.024 13.9621C192.784 14.0053 190.643 14.054 190.241 14.0269C189.893 13.9999 188.903 13.4864 188.7 13.2431L188.694 13.2377ZM198.077 25.0269L197.729 25.0918C197.167 24.5945 194.609 23.0918 193.592 22.6594C192.388 23.8918 190.755 24.8648 189.551 25.1458C189.417 25.1891 189.326 25.1999 189.256 25.1999C189.106 25.1999 188.989 25.0648 188.989 24.9134C190.166 24.3296 192.671 21.6702 193.137 20.5999C193.201 20.4377 192.853 20.1675 192.628 20.1242L192.671 19.9458C193.035 19.6756 194.48 19.9729 194.908 20.1891C195.042 20.254 195.069 20.4323 194.999 20.5783C194.775 21.1621 194.4 21.7404 193.929 22.281C194.957 22.4323 197.355 23.1188 197.97 23.4702C198.264 23.7404 198.291 24.7296 198.077 25.0107V25.0269ZM194.25 16.535C194.598 16.5729 195.454 16.5729 196.231 16.5621V12.9783C196.231 12.8702 196.22 12.7891 196.14 12.7242C195.979 12.5458 195.54 12.3567 195.107 12.3567V12.1134C195.695 11.6648 197.167 11.8972 197.702 12.0756C197.917 12.1404 197.97 12.2648 197.959 12.6323C197.943 12.8756 197.917 19.8918 197.933 20.281C197.943 20.5242 197.007 21.2972 196.739 21.2972C196.621 21.2972 196.295 21.1458 196.231 21.0702V17.2053C195.519 17.2215 195.198 17.2864 194.876 17.4756C194.646 17.3945 194.234 16.9621 194.154 16.7458L194.245 16.5404L194.25 16.535Z" fill="white"/>
            <path d="M214.712 24.7135C214.712 24.8486 213.856 25.1729 213.562 25.1729C213.401 25.1729 212.984 24.9459 212.984 24.8594V20.0053H210.147C209.542 20.7783 208.605 21.2378 207.508 21.2486C205.458 21.2756 204.281 20.0972 204.281 18.1675C204.281 16.3405 205.645 14.8702 207.642 14.8432C208.835 14.8324 209.729 15.2648 210.265 15.9945H212.984V13.0053C212.984 12.8972 212.957 12.8162 212.893 12.7459C212.716 12.5675 212.234 12.3675 211.795 12.3675V12.108C212.411 11.6594 213.883 11.8918 214.445 12.0702C214.659 12.1351 214.712 12.2594 214.702 12.654C214.686 12.908 214.686 22.3891 214.686 23.1026C214.686 23.5999 214.686 24.3351 214.712 24.7135ZM209.183 18.1026C209.183 16.627 208.472 15.5351 207.535 15.5621C206.571 15.5891 205.967 16.508 205.967 17.9837C205.967 19.4594 206.689 20.5675 207.626 20.5405C208.579 20.5135 209.178 19.7405 209.178 18.108L209.183 18.1026ZM212.984 19.3891V16.6162H210.602C210.752 16.9945 210.832 17.427 210.832 17.8864C210.832 18.4432 210.725 18.9405 210.522 19.3891H212.984Z" fill="white"/>
            <path d="M223.865 19.7947C223.597 19.319 222.34 18.0109 221.708 17.5622C220.327 18.8757 218.711 19.9028 217.544 20.2379C217.437 20.2649 217.357 20.2757 217.292 20.2757C217.132 20.2757 217.009 20.1568 217.009 19.9947C218.4 19.2487 221.44 15.9784 222.19 14.4541C220.14 14.4271 219.524 14.519 218.909 14.9514C218.598 14.8595 217.929 14.2595 217.811 13.9893L217.929 13.746C218.213 13.8001 218.679 13.8109 219.016 13.8109L222.136 13.7839C222.259 13.7839 222.447 13.6757 222.538 13.5676C222.832 13.5947 223.838 13.8379 224.063 13.9352C224.154 13.9893 224.154 14.0811 224.117 14.1893C223.742 15.2163 222.977 16.2703 222.056 17.2055C222.698 17.2866 224.213 17.9352 224.598 18.2757C224.823 18.6433 224.518 19.7082 224.17 19.8866L223.86 19.7893L223.865 19.7947ZM227.933 22.5947C227.933 24.1244 226.365 25.1784 224.438 25.2055C222.281 25.2325 221.066 24.3298 221.066 22.8541C221.066 21.4757 222.5 20.2703 224.561 20.2433C226.755 20.2163 227.933 21.2055 227.933 22.5947ZM226.258 22.7839C226.258 21.7406 225.465 20.919 224.438 20.946C223.378 20.973 222.725 21.6487 222.725 22.6757C222.725 23.773 223.528 24.5298 224.561 24.5028C225.594 24.4757 226.263 23.9082 226.263 22.7839H226.258ZM228.077 12.6163C228.061 12.8595 228.024 18.6974 228.051 19.1028C228.061 19.3352 227.125 20.0649 226.857 20.0649C226.739 20.0649 226.413 19.9028 226.349 19.8325V16.5893C225.385 16.6163 224.984 16.6811 224.566 16.9136C224.325 16.8163 223.854 16.3839 223.763 16.1406L223.87 15.9352C224.245 15.9784 225.332 15.9622 226.349 15.946V12.946C226.349 12.8379 226.338 12.7568 226.268 12.692C226.092 12.5136 225.68 12.3406 225.278 12.3406V12.0974C225.84 11.6757 227.301 11.9082 227.821 12.0811C228.035 12.146 228.088 12.2703 228.077 12.6109V12.6163Z" fill="white"/>
        </g>
    </g>
    <defs>
        <filter id="filter0_d_680_813" x="-1.41736" y="-1.15674" width="248.496" height="45.3628" filterUnits="userSpaceOnUse" color-interpolation-filters="sRGB">
            <feFlood flood-opacity="0" result="BackgroundImageFix"/>
            <feColorMatrix in="SourceAlpha" type="matrix" values="0 0 0 0 0 0 0 0 0 0 0 0 0 0 0 0 0 0 127 0" result="hardAlpha"/>
            <feOffset dx="3" dy="3"/>
            <feGaussianBlur stdDeviation="8"/>
            <feColorMatrix type="matrix" values="0 0 0 0 0 0 0 0 0 0 0 0 0 0 0 0 0 0 0.5 0"/>
            <feBlend mode="normal" in2="BackgroundImageFix" result="effect1_dropShadow_680_813"/>
            <feBlend mode="normal" in="SourceGraphic" in2="effect1_dropShadow_680_813" result="shape"/>
        </filter>
        <clipPath id="clip0_680_813">
            <rect width="243" height="40" fill="white"/>
        </clipPath>
    </defs>
</svg>
