<svg width="24" height="19" viewBox="0 0 225 157" fill="none" xmlns="http://www.w3.org/2000/svg">
    <path fill-rule="evenodd" clip-rule="evenodd" d="M199.757 4.68932C209.413 7.27399 217.001 14.8619 219.586 24.5174C224.256 42.0008 224.275 78.5 224.275 78.5C224.275 78.5 224.275 114.999 219.586 132.483C217.001 142.138 209.413 149.726 199.757 152.31C182.275 157 112.137 157 112.137 157C112.137 157 42.0008 157 24.5174 152.31C14.8619 149.726 7.27399 142.138 4.68932 132.483C0 114.999 0 78.5 0 78.5C0 78.5 0 42.0008 4.68932 24.5174C7.27399 14.8619 14.8619 7.27399 24.5174 4.68932C42.0008 0 112.137 0 112.137 0C112.137 0 182.275 0 199.757 4.68932ZM147.954 78.5032L89.6886 112.14V44.8654L147.954 78.5032Z" fill="white"/>
</svg>
